<svg width="345" height="86" viewBox="0 0 345 86" fill="none" xmlns="http://www.w3.org/2000/svg">
    <g fill="none" stroke="#111" stroke-width="3"
     stroke-linecap="round" stroke-linejoin="round"
     vector-effect="non-scaling-stroke">
        <path d="M279.329 78.464C277.708 78.464 276.342 78.08 275.233 77.312C274.124 76.4587 273.569 75.136 273.569 73.344C273.569 70.9547 274.209 68.3947 275.489 65.664C276.854 62.9333 278.604 60.2453 280.737 57.6C282.956 54.9547 285.388 52.5653 288.033 50.432C290.764 48.2133 293.494 46.5067 296.225 45.312C299.041 44.032 301.644 43.4347 304.033 43.52C304.972 40.96 306.209 37.8453 307.745 34.176C309.281 30.5067 311.073 26.7093 313.121 22.784C315.169 18.7733 317.43 15.0613 319.905 11.648C322.465 8.14934 325.196 5.33334 328.097 3.2C331.084 1.06667 334.198 0 337.441 0C339.745 0 341.58 0.554667 342.945 1.664C344.31 2.77334 344.993 4.52267 344.993 6.912C344.993 9.64267 344.054 12.672 342.177 16C340.3 19.328 337.868 22.784 334.881 26.368C331.894 29.8667 328.694 33.3227 325.281 36.736C321.953 40.1493 318.753 43.3067 315.681 46.208C312.609 49.024 310.092 51.3707 308.129 53.248C307.276 56.1493 306.721 58.5387 306.465 60.416C306.294 62.2933 306.209 63.9147 306.209 65.28C306.209 66.304 306.252 67.4987 306.337 68.864C306.508 70.144 306.892 71.296 307.489 72.32C308.086 73.2587 309.068 73.728 310.433 73.728C311.798 73.728 313.334 73.1307 315.041 71.936C316.748 70.7413 318.454 69.3333 320.161 67.712C321.868 66.0053 323.361 64.4693 324.641 63.104C325.921 61.7387 326.86 60.8853 327.457 60.544H327.713C327.969 60.544 328.182 60.8 328.353 61.312C328.524 61.7387 328.524 62.08 328.353 62.336C327.585 63.2747 326.39 64.64 324.769 66.432C323.148 68.1387 321.313 69.9307 319.265 71.808C317.217 73.6 315.126 75.136 312.993 76.416C310.945 77.6107 309.068 78.208 307.361 78.208C303.862 78.208 301.473 77.0987 300.193 74.88C298.913 72.6613 298.273 70.144 298.273 67.328C298.273 66.6453 298.273 66.0053 298.273 65.408C298.358 64.8107 298.444 64.2133 298.529 63.616C297.164 65.408 295.457 67.456 293.409 69.76C291.361 72.064 289.1 74.112 286.625 75.904C284.236 77.6107 281.804 78.464 279.329 78.464ZM309.153 49.28C310.604 47.6587 312.566 45.5253 315.041 42.88C317.516 40.2347 320.161 37.2907 322.977 34.048C325.793 30.8053 328.438 27.52 330.913 24.192C333.388 20.7787 335.393 17.4933 336.929 14.336C338.55 11.1787 339.361 8.36267 339.361 5.888C339.361 4.26667 338.636 3.456 337.185 3.456C335.222 3.456 333.217 4.352 331.169 6.144C329.121 7.936 327.116 10.3253 325.153 13.312C323.276 16.2987 321.441 19.5413 319.649 23.04C317.942 26.5387 316.364 30.0373 314.913 33.536C313.548 36.9493 312.353 40.064 311.329 42.88C310.39 45.6107 309.665 47.744 309.153 49.28ZM286.241 72.576C288.204 71.4667 290.166 69.7173 292.129 67.328C294.177 64.9387 296.097 62.208 297.889 59.136C299.766 56.064 301.345 52.992 302.625 49.92C300.577 49.92 298.273 50.688 295.713 52.224C293.153 53.6747 290.721 55.552 288.417 57.856C286.113 60.0747 284.193 62.4213 282.657 64.896C281.206 67.2853 280.481 69.4613 280.481 71.424C280.481 73.0453 281.121 73.856 282.401 73.856C283.34 73.856 284.62 73.4293 286.241 72.576Z" fill="#FF002B"/>
        <path d="M263.424 44.288C262.144 44.288 261.035 43.8613 260.096 43.008C259.243 42.0693 258.816 40.96 258.816 39.68C258.816 38.4 259.243 37.2907 260.096 36.352C261.035 35.4133 262.144 34.944 263.424 34.944C264.704 34.944 265.813 35.4133 266.752 36.352C267.691 37.2907 268.16 38.4 268.16 39.68C268.16 40.96 267.691 42.0693 266.752 43.008C265.813 43.8613 264.704 44.288 263.424 44.288ZM254.08 80.512C251.093 80.512 248.576 79.744 246.528 78.208C244.565 76.5867 243.797 73.9413 244.224 70.272C244.395 69.0773 244.821 67.4133 245.504 65.28C246.187 63.0613 247.04 60.8427 248.064 58.624C249.173 56.32 250.368 54.3573 251.648 52.736C252.928 51.1147 254.208 50.304 255.488 50.304C256.512 50.304 257.493 50.6453 258.432 51.328C259.371 51.9253 259.84 52.7787 259.84 53.888C259.84 54.4853 259.413 55.3387 258.56 56.448C257.707 57.472 256.683 58.7947 255.488 60.416C254.379 61.952 253.397 63.7013 252.544 65.664C251.691 67.5413 251.264 69.5893 251.264 71.808C251.264 73.856 251.691 75.264 252.544 76.032C253.483 76.7147 254.592 77.056 255.872 77.056C257.493 77.056 259.243 76.6293 261.12 75.776C262.997 74.8373 264.875 73.6853 266.752 72.32C267.861 71.552 269.483 70.144 271.616 68.096C273.835 66.048 276.395 63.4453 279.296 60.288C279.467 60.1173 279.637 60.032 279.808 60.032C280.491 60.032 280.832 60.5013 280.832 61.44C280.832 61.696 280.32 62.4213 279.296 63.616C278.272 64.7253 277.035 66.0053 275.584 67.456C274.219 68.9067 272.896 70.272 271.616 71.552C270.336 72.7467 269.397 73.5573 268.8 73.984C266.667 75.6053 264.363 77.0987 261.888 78.464C259.499 79.8293 256.896 80.512 254.08 80.512Z" fill="#FF002B"/>
        <path d="M182.528 82.432C179.2 82.432 177.536 80.7253 177.536 77.312C177.536 75.008 178.133 72.2773 179.328 69.12C180.523 65.9627 182.101 62.8907 184.064 59.904C186.112 56.832 188.373 54.3147 190.848 52.352C193.408 50.304 195.968 49.28 198.528 49.28C199.125 49.28 199.723 49.408 200.32 49.664C200.917 49.8347 201.216 50.2613 201.216 50.944C201.131 51.1147 201.003 51.328 200.832 51.584C200.747 51.7547 200.619 51.9253 200.448 52.096C199.253 53.2053 197.76 54.656 195.968 56.448C194.176 58.24 192.341 60.288 190.464 62.592C188.672 64.8107 187.179 67.1147 185.984 69.504C185.728 70.016 185.259 70.9973 184.576 72.448C183.893 73.8987 183.552 75.2213 183.552 76.416C183.552 77.5253 184.107 78.08 185.216 78.08C185.728 78.08 186.411 77.952 187.264 77.696C191.36 76.16 194.859 73.9413 197.76 71.04C200.747 68.1387 203.307 65.1093 205.44 61.952C207.573 58.7947 209.408 56.192 210.944 54.144C211.712 53.8027 212.608 53.632 213.632 53.632C214.485 53.632 215.253 53.8453 215.936 54.272C216.704 54.6133 217.088 55.296 217.088 56.32C215.552 58.1973 214.144 60.544 212.864 63.36C211.584 66.0907 210.944 68.864 210.944 71.68C210.944 74.3253 212.224 75.648 214.784 75.648C216.491 75.648 218.112 74.8373 219.648 73.216C221.184 71.5947 222.549 69.76 223.744 67.712C224.939 65.5787 225.792 63.872 226.304 62.592C226.048 61.9093 225.621 60.7573 225.024 59.136C224.512 57.4293 224 55.7653 223.488 54.144C222.976 52.4373 222.72 51.328 222.72 50.816C222.72 49.8773 222.976 49.1947 223.488 48.768C224.085 48.3413 224.811 48.128 225.664 48.128C227.627 48.128 229.205 48.9387 230.4 50.56C231.595 52.1813 232.192 53.888 232.192 55.68C232.192 56.5333 232.064 57.3867 231.808 58.24C231.637 59.0933 231.339 59.904 230.912 60.672C231.339 62.208 231.893 63.7867 232.576 65.408C233.344 67.0293 234.624 67.84 236.416 67.84C238.891 67.84 240.896 67.2853 242.432 66.176C243.968 65.0667 245.803 63.4027 247.936 61.184C248.021 61.0987 248.192 61.056 248.448 61.056C249.216 61.056 249.6 61.3973 249.6 62.08C249.6 62.4213 249.429 62.8053 249.088 63.232C247.552 64.9387 245.717 66.688 243.584 68.48C241.536 70.272 239.189 71.168 236.544 71.168C232.789 71.168 229.888 69.5467 227.84 66.304C227.072 68.1813 225.963 70.0587 224.512 71.936C223.147 73.8133 221.525 75.392 219.648 76.672C217.856 77.8667 215.851 78.464 213.632 78.464C210.901 78.464 208.725 77.7387 207.104 76.288C205.483 74.752 204.672 71.808 204.672 67.456C203.563 68.5653 202.069 69.9733 200.192 71.68C198.4 73.3013 196.437 74.9653 194.304 76.672C192.171 78.2933 190.08 79.6587 188.032 80.768C185.984 81.8773 184.149 82.432 182.528 82.432Z" fill="#FF002B"/>
        <path d="M163.584 78.72C160.853 78.72 158.805 78.08 157.44 76.8C156.075 75.4347 155.179 73.728 154.752 71.68C154.411 69.632 154.283 67.584 154.368 65.536C153.088 67.2427 151.509 69.12 149.632 71.168C147.755 73.1307 145.707 74.8373 143.488 76.288C141.269 77.7387 139.008 78.464 136.704 78.464C134.997 78.464 133.589 78.08 132.48 77.312C131.371 76.4587 130.816 75.136 130.816 73.344C130.816 70.3573 131.755 67.2 133.632 63.872C135.595 60.544 138.069 57.3867 141.056 54.4C144.043 51.328 147.243 48.8533 150.656 46.976C154.069 45.0987 157.269 44.16 160.256 44.16C161.109 44.16 162.304 44.3307 163.84 44.672C165.376 45.0133 166.741 45.5253 167.936 46.208C169.216 46.8907 169.856 47.8293 169.856 49.024C169.856 49.6213 169.472 49.9627 168.704 50.048C167.936 50.1333 167.381 50.3893 167.04 50.816C164.565 53.8027 163.328 58.624 163.328 65.28C163.328 66.1333 163.371 67.2853 163.456 68.736C163.541 70.1867 163.84 71.4667 164.352 72.576C164.949 73.6853 165.845 74.24 167.04 74.24C168.832 74.24 170.752 73.472 172.8 71.936C174.848 70.4 176.896 68.5653 178.944 66.432C180.992 64.2133 182.869 62.208 184.576 60.416C184.747 60.16 184.917 60.032 185.088 60.032C185.515 60.032 185.856 60.288 186.112 60.8C186.453 61.2267 186.453 61.6107 186.112 61.952C184.064 64.3413 182.059 66.4747 180.096 68.352C178.219 70.2293 176.256 72.0213 174.208 73.728C170.283 77.056 166.741 78.72 163.584 78.72ZM143.616 72.576C145.579 71.4667 147.541 69.7173 149.504 67.328C151.552 64.9387 153.472 62.208 155.264 59.136C157.141 56.064 158.72 52.992 160 49.92C157.952 49.92 155.648 50.688 153.088 52.224C150.528 53.6747 148.096 55.552 145.792 57.856C143.488 60.0747 141.568 62.4213 140.032 64.896C138.581 67.2853 137.856 69.4613 137.856 71.424C137.856 73.0453 138.496 73.856 139.776 73.856C140.715 73.856 141.995 73.4293 143.616 72.576Z" fill="#FF002B"/>
        <path d="M36.352 85.888C34.4747 85.888 32.0427 85.7173 29.056 85.376C26.0693 85.12 22.912 84.6507 19.584 83.968C16.256 83.2853 13.0987 82.3467 10.112 81.152C7.12533 79.9573 4.69333 78.464 2.816 76.672C0.938667 74.7947 0 72.576 0 70.016C0 66.432 1.024 63.4453 3.072 61.056C5.12 58.5813 7.72267 56.576 10.88 55.04C14.0373 53.504 17.3227 52.352 20.736 51.584C24.2347 50.7307 27.392 50.2187 30.208 50.048C31.0613 48.512 32.2133 46.5067 33.664 44.032C35.1147 41.472 36.6933 38.7413 38.4 35.84C40.192 32.8533 41.984 29.952 43.776 27.136C45.6533 24.32 47.4027 21.8027 49.024 19.584C50.6453 17.28 52.0107 15.5733 53.12 14.464C54.4 13.2693 55.7227 12.4587 57.088 12.032C58.5387 11.6053 60.1173 11.392 61.824 11.392C62.5067 11.392 63.4453 11.5627 64.64 11.904C65.92 12.16 66.6027 12.672 66.688 13.44C66.5173 14.208 66.0053 15.0187 65.152 15.872C64.384 16.64 63.744 17.3227 63.232 17.92C57.6 24.1493 52.7787 29.824 48.768 34.944C44.8427 40.064 41.3867 45.056 38.4 49.92C43.008 50.0053 47.872 50.432 52.992 51.2C58.112 51.8827 63.1893 52.9493 68.224 54.4C73.2587 55.7653 77.952 57.6 82.304 59.904C86.656 62.1227 90.3253 64.8107 93.312 67.968C95.7013 66.5173 98.304 64.7253 101.12 62.592C104.021 60.3733 106.752 57.8987 109.312 55.168C111.957 52.4373 114.133 49.4933 115.84 46.336C117.547 43.1787 118.4 39.936 118.4 36.608C118.4 32.0853 117.035 28.2027 114.304 24.96C111.573 21.7173 107.989 19.0293 103.552 16.896C99.1147 14.7627 94.3787 13.0987 89.344 11.904C84.3093 10.7093 79.4027 9.85599 74.624 9.34399C69.9307 8.832 65.92 8.576 62.592 8.576C56.0213 8.576 49.5787 9.216 43.264 10.496C37.0347 11.6907 30.8053 13.3973 24.576 15.616C23.7227 15.872 22.5707 16.3413 21.12 17.024C19.7547 17.6213 18.3893 18.176 17.024 18.688C15.6587 19.2 14.592 19.456 13.824 19.456C11.9467 19.456 11.008 18.56 11.008 16.768C11.008 15.0613 12.032 13.568 14.08 12.288C16.128 11.008 18.816 9.89866 22.144 8.95999C25.5573 8.02133 29.2267 7.296 33.152 6.784C37.0773 6.18666 40.9173 5.71733 44.672 5.37599C48.4267 5.03466 51.7547 4.82133 54.656 4.73599C57.6427 4.56533 59.776 4.48 61.056 4.48C64.4693 4.48 68.3947 4.69333 72.832 5.12C77.3547 5.46133 82.048 6.10133 86.912 7.03999C91.8613 7.89333 96.64 9.13066 101.248 10.752C105.941 12.288 110.165 14.2507 113.92 16.64C117.675 19.0293 120.661 21.9307 122.88 25.344C125.184 28.7573 126.336 32.7253 126.336 37.248C126.336 41.1733 125.355 44.928 123.392 48.512C121.429 52.096 118.912 55.424 115.84 58.496C112.768 61.568 109.568 64.3413 106.24 66.816C102.912 69.2053 99.84 71.2107 97.024 72.832C97.28 73.1733 97.4933 73.5573 97.664 73.984C97.92 74.4107 98.048 74.8373 98.048 75.264C98.048 76.032 97.4933 76.416 96.384 76.416C96.0427 76.416 95.616 76.2027 95.104 75.776C94.592 75.264 94.208 74.88 93.952 74.624C84.736 79.0613 75.3493 82.048 65.792 83.584C56.32 85.12 46.5067 85.888 36.352 85.888ZM37.504 82.816C46.464 82.816 55.3387 81.664 64.128 79.36C73.0027 77.056 81.4507 73.8987 89.472 69.888C85.8027 66.56 81.2373 63.7013 75.776 61.312C70.4 58.8373 64.7253 56.96 58.752 55.68C52.864 54.3147 47.3173 53.632 42.112 53.632C41.344 53.632 40.576 53.632 39.808 53.632C39.04 53.632 38.3147 53.6747 37.632 53.76L36.224 53.888C34.7733 56.3627 33.2373 59.008 31.616 61.824C30.08 64.64 28.7573 67.5413 27.648 70.528C26.624 73.5147 26.112 76.4587 26.112 79.36C26.112 80.7253 25.5147 81.536 24.32 81.792C26.5387 82.2187 28.7147 82.4747 30.848 82.56C33.0667 82.7307 35.2853 82.816 37.504 82.816ZM21.248 81.024C20.8213 80.5973 20.5227 80.0427 20.352 79.36C20.1813 78.7627 20.096 78.1653 20.096 77.568C20.096 76.2027 20.3947 74.496 20.992 72.448C21.5893 70.3147 22.3147 68.096 23.168 65.792C24.1067 63.4027 25.0027 61.184 25.856 59.136C26.7947 57.088 27.5627 55.424 28.16 54.144C25.4293 54.5707 22.528 55.424 19.456 56.704C16.4693 57.8987 13.9093 59.6053 11.776 61.824C9.728 64.0427 8.704 66.8587 8.704 70.272C8.704 72.1493 9.42933 73.856 10.88 75.392C12.416 76.8427 14.1653 78.0373 16.128 78.976C18.0907 79.9147 19.7973 80.5973 21.248 81.024Z" fill="#FF002B"/>
    </g>
</svg>
